<svg width="142" height="149" viewBox="0 0 142 149" fill="none" xmlns="http://www.w3.org/2000/svg">
<path d="M67.5685 1.89163C69.1329 -0.630565 72.8026 -0.630565 74.367 1.89163L85.8179 20.3536C86.8464 22.0118 88.9212 22.6859 90.728 21.949L110.844 13.7436C113.592 12.6226 116.561 14.7796 116.344 17.7396L114.756 39.4064C114.613 41.3524 115.896 43.1174 117.791 43.5831L138.887 48.7685C141.77 49.4769 142.904 52.967 140.988 55.2342L126.968 71.8298C125.709 73.3203 125.709 75.5019 126.968 76.9925L140.988 93.588C142.904 95.8552 141.77 99.3454 138.887 100.054L117.791 105.239C115.896 105.705 114.613 107.47 114.756 109.416L116.344 131.083C116.561 134.043 113.592 136.2 110.844 135.079L90.728 126.873C88.9212 126.136 86.8464 126.81 85.8179 128.469L74.367 146.931C72.8026 149.453 69.1329 149.453 67.5685 146.931L56.1176 128.469C55.0891 126.81 53.0143 126.136 51.2076 126.873L31.0919 135.079C28.3438 136.2 25.3749 134.043 25.5918 131.083L27.1795 109.416C27.3221 107.47 26.0398 105.705 24.145 105.239L3.04805 100.054C0.16588 99.3454 -0.96813 95.8552 0.9472 93.588L14.9671 76.9925C16.2263 75.5019 16.2263 73.3203 14.9671 71.8298L0.947199 55.2342C-0.96813 52.967 0.16588 49.4769 3.04804 48.7685L24.145 43.5831C26.0398 43.1174 27.3221 41.3524 27.1795 39.4064L25.5918 17.7396C25.3749 14.7796 28.3438 12.6226 31.0919 13.7436L51.2076 21.949C53.0143 22.6859 55.0891 22.0118 56.1176 20.3536L67.5685 1.89163Z" fill="#311862"/>
</svg>
